{"glyphs":{"0":{"ha":1154,"x_min":42,"x_max":1111,"o":"m 785 113 l 353 361 q 310 244 310 311 q 362 119 310 171 q 488 67 414 67 l 665 67 q 785 113 733 67 m 844 244 q 792 370 844 318 q 667 422 739 422 l 488 422 q 411 406 447 422 l 825 165 q 844 244 844 203 m 840 0 l 314 0 q 122 80 201 0 q 43 271 43 160 q 122 462 43 382 q 314 542 201 542 l 840 542 q 1031 462 951 542 q 1111 271 1111 382 q 1031 80 1111 160 q 840 0 951 0 z "},"1":{"ha":478,"x_min":33,"x_max":428,"o":"m 160 422 l 35 422 l 35 542 l 426 542 l 426 0 l 160 0 l 160 422 z "},"2":{"ha":1161,"x_min":47,"x_max":1117,"o":"m 47 151 q 92 260 47 215 q 200 304 138 304 l 790 304 q 831 322 814 304 q 849 363 849 339 q 831 405 849 388 q 790 422 814 422 l 47 422 l 47 542 l 964 542 q 1072 497 1026 542 q 1117 389 1117 451 q 1072 282 1117 326 q 964 238 1026 238 l 400 238 q 340 213 365 238 q 315 151 315 188 l 315 67 l 1117 67 l 1117 0 l 47 0 l 47 151 z "},"3":{"ha":1160,"x_min":43,"x_max":1114,"o":"m 760 238 l 363 238 l 363 304 l 786 304 q 828 322 811 304 q 846 363 846 339 q 828 405 846 388 q 786 422 811 422 l 371 422 q 328 405 346 422 q 311 364 311 388 l 47 364 q 44 389 44 376 q 89 497 44 451 q 196 542 133 542 l 961 542 q 1068 497 1024 542 q 1113 389 1113 453 q 1056 271 1113 317 q 1113 153 1113 225 q 1068 44 1113 89 q 961 0 1024 0 l 196 0 q 89 44 133 0 q 44 153 44 89 l 311 153 q 336 92 311 117 q 397 67 361 67 l 760 67 q 821 92 796 67 q 846 152 846 117 q 821 213 846 188 q 760 238 796 238 z "},"4":{"ha":1161,"x_min":42,"x_max":1111,"o":"m 843 238 l 193 238 q 95 274 138 238 q 43 364 53 310 l 42 364 l 42 542 l 308 542 l 308 364 q 326 322 308 339 q 367 304 343 304 l 843 304 l 843 542 l 1110 542 l 1110 0 l 843 0 l 843 238 z "},"5":{"ha":1163,"x_min":47,"x_max":1117,"o":"m 824 92 q 836 104 824 92 q 849 152 849 117 q 824 213 849 188 q 764 238 799 238 l 47 238 l 47 389 q 92 497 47 451 q 200 542 138 542 l 1117 542 l 1117 422 l 374 422 q 345 416 357 422 q 328 402 333 410 q 319 379 322 394 q 316 355 317 364 q 316 328 315 346 q 317 304 317 310 l 964 304 q 1072 260 1026 304 q 1117 152 1117 215 q 1072 44 1117 89 q 964 0 1026 0 l 200 0 q 92 44 138 0 q 47 151 47 89 l 315 151 q 340 92 315 117 q 400 67 365 67 l 764 67 q 824 92 799 67 z "},"6":{"ha":1163,"x_min":47,"x_max":1118,"o":"m 49 151 l 49 389 q 93 497 49 451 q 200 542 138 542 l 1117 542 l 1117 422 l 375 422 q 333 405 350 422 q 315 364 315 388 l 315 304 l 965 304 q 1072 260 1028 304 q 1117 152 1117 215 q 1072 44 1117 89 q 965 0 1028 0 l 201 0 q 93 44 138 0 q 49 151 49 89 m 825 92 q 838 104 825 92 q 850 152 850 117 q 825 213 850 188 q 765 238 800 238 l 401 238 q 340 213 365 238 q 315 152 315 188 q 340 92 315 117 q 401 67 365 67 l 765 67 q 825 92 800 67 z "},"7":{"ha":1140,"x_min":33,"x_max":1103,"o":"m 785 422 l 35 422 l 35 542 l 1103 542 l 1103 422 l 829 0 l 511 0 l 785 422 z "},"8":{"ha":1163,"x_min":46,"x_max":1115,"o":"m 374 304 l 789 304 q 831 322 814 304 q 849 363 849 339 q 831 405 849 388 q 789 422 814 422 l 374 422 q 331 405 349 422 q 314 363 314 388 q 331 322 314 339 q 374 304 349 304 m 104 271 q 47 389 47 317 q 92 497 47 451 q 199 542 136 542 l 964 542 q 1071 497 1026 542 q 1115 389 1115 451 q 1058 271 1115 317 q 1115 151 1115 225 q 1071 44 1115 89 q 964 0 1026 0 l 199 0 q 92 44 136 0 q 47 151 47 89 q 104 271 47 225 m 763 67 q 824 92 799 67 q 849 152 849 117 q 824 213 849 188 q 763 238 799 238 l 400 238 q 339 213 364 238 q 314 152 314 188 q 339 92 314 117 q 400 67 364 67 l 763 67 z "},"9":{"ha":1161,"x_min":43,"x_max":1114,"o":"m 371 304 l 786 304 q 828 322 811 304 q 846 363 846 339 q 828 405 846 388 q 786 422 811 422 l 371 422 q 328 405 346 422 q 311 363 311 388 q 328 322 311 339 q 371 304 346 304 m 44 67 l 760 67 q 821 92 796 67 q 846 151 846 117 l 846 238 l 196 238 q 89 282 133 238 q 44 389 44 326 q 89 497 44 451 q 196 542 133 542 l 961 542 q 1068 497 1024 542 q 1113 389 1113 451 l 1113 151 q 1068 44 1113 89 q 961 0 1024 0 l 44 0 l 44 67 z "},"\u000b":{"ha":732,"x_min":69,"x_max":663,"o":"m 69 972 l 663 972 l 663 0 l 69 0 l 69 972 m 108 944 l 365 515 l 624 944 l 108 944 m 349 486 l 99 903 l 99 68 l 349 486 m 367 457 l 110 29 l 624 29 l 367 457 m 383 486 l 635 65 l 635 906 l 383 486 z "},"\f":{"ha":732,"x_min":69,"x_max":663,"o":"m 69 972 l 663 972 l 663 0 l 69 0 l 69 972 m 108 944 l 365 515 l 624 944 l 108 944 m 349 486 l 99 903 l 99 68 l 349 486 m 367 457 l 110 29 l 624 29 l 367 457 m 383 486 l 635 65 l 635 906 l 383 486 z "},">":{"ha":732,"x_min":69,"x_max":663,"o":"m 69 972 l 663 972 l 663 0 l 69 0 l 69 972 m 108 944 l 365 515 l 624 944 l 108 944 m 349 486 l 99 903 l 99 68 l 349 486 m 367 457 l 110 29 l 624 29 l 367 457 m 383 486 l 635 65 l 635 906 l 383 486 z "},"^":{"ha":732,"x_min":69,"x_max":663,"o":"m 69 972 l 663 972 l 663 0 l 69 0 l 69 972 m 108 944 l 365 515 l 624 944 l 108 944 m 349 486 l 99 903 l 99 68 l 349 486 m 367 457 l 110 29 l 624 29 l 367 457 m 383 486 l 635 65 l 635 906 l 383 486 z "},"Æ":{"ha":732,"x_min":69,"x_max":663,"o":"m 69 972 l 663 972 l 663 0 l 69 0 l 69 972 m 108 944 l 365 515 l 624 944 l 108 944 m 349 486 l 99 903 l 99 68 l 349 486 m 367 457 l 110 29 l 624 29 l 367 457 m 383 486 l 635 65 l 635 906 l 383 486 z "},"Ð":{"ha":732,"x_min":69,"x_max":663,"o":"m 69 972 l 663 972 l 663 0 l 69 0 l 69 972 m 108 944 l 365 515 l 624 944 l 108 944 m 349 486 l 99 903 l 99 68 l 349 486 m 367 457 l 110 29 l 624 29 l 367 457 m 383 486 l 635 65 l 635 906 l 383 486 z "},"×":{"ha":732,"x_min":69,"x_max":663,"o":"m 69 972 l 663 972 l 663 0 l 69 0 l 69 972 m 108 944 l 365 515 l 624 944 l 108 944 m 349 486 l 99 903 l 99 68 l 349 486 m 367 457 l 110 29 l 624 29 l 367 457 m 383 486 l 635 65 l 635 906 l 383 486 z "},"Þ":{"ha":732,"x_min":69,"x_max":663,"o":"m 69 972 l 663 972 l 663 0 l 69 0 l 69 972 m 108 944 l 365 515 l 624 944 l 108 944 m 349 486 l 99 903 l 99 68 l 349 486 m 367 457 l 110 29 l 624 29 l 367 457 m 383 486 l 635 65 l 635 906 l 383 486 z "},"ß":{"ha":732,"x_min":69,"x_max":663,"o":"m 69 972 l 663 972 l 663 0 l 69 0 l 69 972 m 108 944 l 365 515 l 624 944 l 108 944 m 349 486 l 99 903 l 99 68 l 349 486 m 367 457 l 110 29 l 624 29 l 367 457 m 383 486 l 635 65 l 635 906 l 383 486 z "},"æ":{"ha":732,"x_min":69,"x_max":663,"o":"m 69 972 l 663 972 l 663 0 l 69 0 l 69 972 m 108 944 l 365 515 l 624 944 l 108 944 m 349 486 l 99 903 l 99 68 l 349 486 m 367 457 l 110 29 l 624 29 l 367 457 m 383 486 l 635 65 l 635 906 l 383 486 z "},"ð":{"ha":732,"x_min":69,"x_max":663,"o":"m 69 972 l 663 972 l 663 0 l 69 0 l 69 972 m 108 944 l 365 515 l 624 944 l 108 944 m 349 486 l 99 903 l 99 68 l 349 486 m 367 457 l 110 29 l 624 29 l 367 457 m 383 486 l 635 65 l 635 906 l 383 486 z "},"÷":{"ha":732,"x_min":69,"x_max":663,"o":"m 69 972 l 663 972 l 663 0 l 69 0 l 69 972 m 108 944 l 365 515 l 624 944 l 108 944 m 349 486 l 99 903 l 99 68 l 349 486 m 367 457 l 110 29 l 624 29 l 367 457 m 383 486 l 635 65 l 635 906 l 383 486 z "},"þ":{"ha":732,"x_min":69,"x_max":663,"o":"m 69 972 l 663 972 l 663 0 l 69 0 l 69 972 m 108 944 l 365 515 l 624 944 l 108 944 m 349 486 l 99 903 l 99 68 l 349 486 m 367 457 l 110 29 l 624 29 l 367 457 m 383 486 l 635 65 l 635 906 l 383 486 z "},"‚":{"ha":732,"x_min":69,"x_max":663,"o":"m 69 972 l 663 972 l 663 0 l 69 0 l 69 972 m 108 944 l 365 515 l 624 944 l 108 944 m 349 486 l 99 903 l 99 68 l 349 486 m 367 457 l 110 29 l 624 29 l 367 457 m 383 486 l 635 65 l 635 906 l 383 486 z "},"‛":{"ha":732,"x_min":69,"x_max":663,"o":"m 69 972 l 663 972 l 663 0 l 69 0 l 69 972 m 108 944 l 365 515 l 624 944 l 108 944 m 349 486 l 99 903 l 99 68 l 349 486 m 367 457 l 110 29 l 624 29 l 367 457 m 383 486 l 635 65 l 635 906 l 383 486 z "},"\u0000":{"ha":0,"x_min":0,"x_max":0,"o":""},"\n":{"ha":0,"x_min":0,"x_max":0,"o":""},"\r":{"ha":0,"x_min":0,"x_max":0,"o":""}," ":{"ha":347,"x_min":0,"x_max":0,"o":""},"!":{"ha":364,"x_min":47,"x_max":317,"o":"m 315 108 l 315 -3 l 49 -3 l 49 108 l 315 108 m 49 539 l 315 539 l 315 175 l 49 175 l 49 539 z "},"\"":{"ha":672,"x_min":33,"x_max":638,"o":"m 369 474 l 369 585 l 638 585 l 638 474 l 578 371 l 424 371 l 483 474 l 369 474 m 147 474 l 35 474 l 35 585 l 301 585 l 301 474 l 243 371 l 89 371 l 147 474 z "},"“":{"ha":672,"x_min":33,"x_max":638,"o":"m 369 474 l 369 585 l 638 585 l 638 474 l 578 371 l 424 371 l 483 474 l 369 474 m 147 474 l 35 474 l 35 585 l 301 585 l 301 474 l 243 371 l 89 371 l 147 474 z "},"”":{"ha":672,"x_min":33,"x_max":638,"o":"m 369 474 l 369 585 l 638 585 l 638 474 l 578 371 l 424 371 l 483 474 l 369 474 m 147 474 l 35 474 l 35 585 l 301 585 l 301 474 l 243 371 l 89 371 l 147 474 z "},"#":{"ha":671,"x_min":43,"x_max":628,"o":"m 258 208 l 382 208 l 414 326 l 290 326 l 258 208 m 168 326 l 44 326 l 44 394 l 186 394 l 225 539 l 347 539 l 308 394 l 432 394 l 469 539 l 593 539 l 554 394 l 628 394 l 628 326 l 536 326 l 504 208 l 628 208 l 628 142 l 486 142 l 447 -3 l 325 -3 l 364 142 l 240 142 l 201 -3 l 79 -3 l 118 142 l 44 142 l 44 208 l 136 208 l 168 326 z "},"$":{"ha":1160,"x_min":44,"x_max":1114,"o":"m 613 235 l 613 64 l 761 64 q 821 89 796 64 q 846 149 846 114 q 821 210 846 185 q 761 235 796 235 l 613 235 m 372 301 l 546 301 l 546 419 l 372 419 q 330 402 347 419 q 313 360 313 385 q 330 319 313 336 q 372 301 347 301 m 46 149 l 313 149 q 338 89 313 114 q 397 64 363 64 l 546 64 l 546 235 l 197 235 q 90 279 135 235 q 46 386 46 324 q 90 494 46 449 q 197 539 135 539 l 546 539 l 546 724 l 613 724 l 613 539 l 961 539 q 1069 494 1024 539 q 1114 386 1114 449 q 1111 360 1114 374 l 846 360 q 828 402 846 385 q 788 419 811 419 l 613 419 l 613 301 l 961 301 q 1069 257 1024 301 q 1114 149 1114 213 q 1069 42 1114 86 q 961 -3 1024 -3 l 613 -3 l 613 -189 l 546 -189 l 546 -3 l 197 -3 q 90 42 135 -3 q 46 149 46 86 z "},"%":{"ha":1951,"x_min":39,"x_max":1911,"o":"m 396 247 l 510 247 q 573 274 547 247 q 599 337 599 300 q 573 399 599 374 q 510 425 547 425 l 396 425 q 333 399 360 425 q 307 337 307 374 q 333 274 307 300 q 396 247 360 247 m 986 544 l 1110 544 l 964 3 l 842 3 l 986 544 m 1378 221 q 1365 208 1378 221 q 1351 158 1351 194 q 1378 96 1351 122 q 1440 69 1404 69 l 1554 69 q 1617 96 1592 69 q 1643 158 1643 122 q 1617 221 1643 194 q 1554 247 1592 247 l 1440 247 q 1378 221 1404 247 m 1267 367 l 1729 367 q 1858 313 1804 367 q 1911 185 1911 260 q 1858 56 1911 110 q 1729 3 1804 3 l 1267 3 q 1138 56 1192 3 q 1085 185 1085 110 q 1138 313 1085 260 q 1267 367 1192 367 m 94 234 q 67 261 94 234 q 40 363 40 288 q 94 491 40 438 q 222 544 147 544 l 685 544 q 813 491 760 544 q 867 363 867 438 q 813 234 867 288 q 685 181 760 181 l 222 181 q 94 234 147 181 z "},"&":{"ha":1217,"x_min":46,"x_max":1321,"o":"m 400 69 l 763 69 q 824 94 799 69 q 849 155 849 119 q 824 215 849 190 q 763 240 799 240 l 400 240 q 339 215 364 240 q 314 155 314 190 q 339 94 314 119 q 400 69 364 69 m 47 154 q 104 274 47 228 q 47 392 47 319 q 92 499 47 454 q 199 544 136 544 l 964 544 q 1071 499 1026 544 q 1115 392 1115 454 q 1114 374 1115 383 l 847 374 q 828 410 844 396 q 789 425 811 425 l 374 425 q 331 408 349 425 q 314 366 314 390 q 331 324 314 342 q 374 307 349 307 l 1321 307 l 1321 240 l 1089 240 q 1115 154 1115 201 q 1071 47 1115 92 q 964 3 1026 3 l 199 3 q 92 47 136 3 q 47 154 47 92 z "},"'":{"ha":338,"x_min":33,"x_max":301,"o":"m 35 474 l 35 585 l 301 585 l 301 474 l 243 371 l 88 371 l 147 474 l 35 474 z "},"‘":{"ha":338,"x_min":33,"x_max":301,"o":"m 35 474 l 35 585 l 301 585 l 301 474 l 243 371 l 88 371 l 147 474 l 35 474 z "},"’":{"ha":338,"x_min":33,"x_max":301,"o":"m 35 474 l 35 585 l 301 585 l 301 474 l 243 371 l 88 371 l 147 474 l 35 474 z "},"(":{"ha":547,"x_min":44,"x_max":519,"o":"m 109 85 q 77 138 109 85 q 46 314 46 190 q 109 542 46 438 q 281 708 172 647 q 519 769 390 769 l 519 651 q 373 552 433 651 q 313 313 313 453 q 373 75 313 174 q 519 -24 433 -24 l 519 -143 q 281 -82 390 -143 q 109 85 172 -21 z "},")":{"ha":549,"x_min":28,"x_max":503,"o":"m 174 75 q 205 124 174 75 q 235 313 235 174 q 174 552 235 453 q 28 651 114 651 l 28 769 q 266 708 157 769 q 439 542 375 647 q 503 314 503 438 q 439 85 503 190 q 266 -82 375 -21 q 29 -143 157 -143 l 29 -24 q 174 75 114 -24 z "},"+":{"ha":481,"x_min":39,"x_max":443,"o":"m 182 265 l 39 265 l 39 383 l 182 383 l 182 526 l 300 526 l 300 383 l 442 383 l 442 265 l 300 265 l 300 124 l 182 124 l 182 265 z "},",":{"ha":340,"x_min":36,"x_max":304,"o":"m 36 108 l 304 108 l 304 -3 l 244 -104 l 90 -104 l 150 -3 l 36 -3 l 36 108 z "},"-":{"ha":471,"x_min":33,"x_max":438,"o":"m 436 265 l 35 265 l 35 376 l 436 376 l 436 265 z "},".":{"ha":335,"x_min":33,"x_max":301,"o":"m 301 7 l 35 7 l 35 118 l 301 118 l 301 7 z "},"/":{"ha":326,"x_min":35,"x_max":304,"o":"m 181 539 l 303 539 l 158 -3 l 35 -3 l 181 539 z "},":":{"ha":349,"x_min":40,"x_max":308,"o":"m 308 265 l 308 154 l 40 154 l 40 265 l 308 265 m 40 488 l 308 488 l 308 376 l 40 376 l 40 488 z "},";":{"ha":353,"x_min":42,"x_max":310,"o":"m 43 265 l 310 265 l 310 154 l 251 53 l 97 53 l 156 154 l 43 154 l 43 265 m 43 376 l 43 488 l 310 488 l 310 376 l 43 376 z "},"=":{"ha":485,"x_min":40,"x_max":444,"o":"m 40 376 l 40 488 l 443 488 l 443 376 l 40 376 m 40 265 l 443 265 l 443 154 l 40 154 l 40 265 z "},"?":{"ha":800,"x_min":36,"x_max":763,"o":"m 96 176 q 148 267 106 231 q 246 303 190 303 l 435 303 q 477 320 460 303 q 494 362 494 338 q 477 403 494 386 q 435 421 460 421 l 36 421 l 36 540 l 610 540 q 717 495 672 540 q 761 388 761 450 q 717 281 761 325 q 610 236 672 236 l 446 236 q 396 219 418 236 q 365 176 374 203 l 96 176 m 361 110 l 361 -1 l 93 -1 l 93 110 l 361 110 z "},"A":{"ha":1144,"x_min":38,"x_max":1107,"o":"m 306 238 l 839 238 l 839 272 q 799 368 839 328 q 704 408 760 408 l 440 408 q 345 368 385 408 q 306 272 306 328 l 306 238 m 1107 0 l 840 0 l 840 171 l 306 171 l 306 0 l 39 0 l 39 271 q 118 462 39 382 q 310 542 197 542 l 836 542 q 1027 462 947 542 q 1107 271 1107 382 l 1107 0 z "},"À":{"ha":1144,"x_min":38,"x_max":1107,"o":"m 306 238 l 839 238 l 839 272 q 799 368 839 328 q 704 408 760 408 l 440 408 q 345 368 385 408 q 306 272 306 328 l 306 238 m 1107 0 l 840 0 l 840 171 l 306 171 l 306 0 l 39 0 l 39 271 q 118 462 39 382 q 310 542 197 542 l 836 542 q 1027 462 947 542 q 1107 271 1107 382 l 1107 0 z "},"Á":{"ha":1144,"x_min":38,"x_max":1107,"o":"m 306 238 l 839 238 l 839 272 q 799 368 839 328 q 704 408 760 408 l 440 408 q 345 368 385 408 q 306 272 306 328 l 306 238 m 1107 0 l 840 0 l 840 171 l 306 171 l 306 0 l 39 0 l 39 271 q 118 462 39 382 q 310 542 197 542 l 836 542 q 1027 462 947 542 q 1107 271 1107 382 l 1107 0 z "},"Â":{"ha":1144,"x_min":38,"x_max":1107,"o":"m 306 238 l 839 238 l 839 272 q 799 368 839 328 q 704 408 760 408 l 440 408 q 345 368 385 408 q 306 272 306 328 l 306 238 m 1107 0 l 840 0 l 840 171 l 306 171 l 306 0 l 39 0 l 39 271 q 118 462 39 382 q 310 542 197 542 l 836 542 q 1027 462 947 542 q 1107 271 1107 382 l 1107 0 z "},"Ã":{"ha":1144,"x_min":38,"x_max":1107,"o":"m 306 238 l 839 238 l 839 272 q 799 368 839 328 q 704 408 760 408 l 440 408 q 345 368 385 408 q 306 272 306 328 l 306 238 m 1107 0 l 840 0 l 840 171 l 306 171 l 306 0 l 39 0 l 39 271 q 118 462 39 382 q 310 542 197 542 l 836 542 q 1027 462 947 542 q 1107 271 1107 382 l 1107 0 z "},"Ä":{"ha":1144,"x_min":38,"x_max":1107,"o":"m 306 238 l 839 238 l 839 272 q 799 368 839 328 q 704 408 760 408 l 440 408 q 345 368 385 408 q 306 272 306 328 l 306 238 m 1107 0 l 840 0 l 840 171 l 306 171 l 306 0 l 39 0 l 39 271 q 118 462 39 382 q 310 542 197 542 l 836 542 q 1027 462 947 542 q 1107 271 1107 382 l 1107 0 z "},"Å":{"ha":1144,"x_min":38,"x_max":1107,"o":"m 306 238 l 839 238 l 839 272 q 799 368 839 328 q 704 408 760 408 l 440 408 q 345 368 385 408 q 306 272 306 328 l 306 238 m 1107 0 l 840 0 l 840 171 l 306 171 l 306 0 l 39 0 l 39 271 q 118 462 39 382 q 310 542 197 542 l 836 542 q 1027 462 947 542 q 1107 271 1107 382 l 1107 0 z "},"B":{"ha":1156,"x_min":50,"x_max":1121,"o":"m 793 304 q 835 322 818 304 q 853 363 853 339 q 835 405 853 388 q 793 422 818 422 l 318 422 l 318 304 l 793 304 m 318 67 l 767 67 q 828 92 803 67 q 853 152 853 117 q 828 213 853 188 q 767 238 803 238 l 318 238 l 318 67 m 51 0 l 51 542 l 968 542 q 1075 497 1031 542 q 1119 389 1119 451 q 1063 271 1119 317 q 1119 151 1119 225 q 1075 44 1119 89 q 968 0 1031 0 l 51 0 z "},"C":{"ha":1117,"x_min":25,"x_max":1093,"o":"m 105 80 q 65 120 105 80 q 25 271 25 160 q 105 462 25 382 q 296 542 185 542 l 824 542 q 1003 473 926 542 q 1092 304 1079 404 l 817 304 q 751 390 797 357 q 649 422 706 422 l 471 422 q 345 370 397 422 q 293 244 293 318 q 345 119 293 171 q 471 67 397 67 l 649 67 q 772 117 721 67 q 826 238 824 167 l 1092 238 q 1003 68 1079 136 q 824 0 926 0 l 296 0 q 105 80 185 0 z "},"Ç":{"ha":1117,"x_min":25,"x_max":1093,"o":"m 105 80 q 65 120 105 80 q 25 271 25 160 q 105 462 25 382 q 296 542 185 542 l 824 542 q 1003 473 926 542 q 1092 304 1079 404 l 817 304 q 751 390 797 357 q 649 422 706 422 l 471 422 q 345 370 397 422 q 293 244 293 318 q 345 119 293 171 q 471 67 397 67 l 649 67 q 772 117 721 67 q 826 238 824 167 l 1092 238 q 1003 68 1079 136 q 824 0 926 0 l 296 0 q 105 80 185 0 z "},"D":{"ha":1144,"x_min":50,"x_max":1121,"o":"m 318 422 l 318 67 l 675 67 q 800 119 747 67 q 853 244 853 171 q 800 370 853 318 q 675 422 747 422 l 318 422 m 51 542 l 849 542 q 1040 462 961 542 q 1119 271 1119 382 q 1040 80 1119 160 q 849 0 961 0 l 51 0 l 51 542 z "},"E":{"ha":1142,"x_min":50,"x_max":1121,"o":"m 51 542 l 1119 542 l 1119 422 l 318 422 l 318 304 l 740 304 l 740 238 l 318 238 l 318 67 l 1119 67 l 1119 0 l 51 0 l 51 542 z "},"È":{"ha":1142,"x_min":50,"x_max":1121,"o":"m 51 542 l 1119 542 l 1119 422 l 318 422 l 318 304 l 740 304 l 740 238 l 318 238 l 318 67 l 1119 67 l 1119 0 l 51 0 l 51 542 z "},"É":{"ha":1142,"x_min":50,"x_max":1121,"o":"m 51 542 l 1119 542 l 1119 422 l 318 422 l 318 304 l 740 304 l 740 238 l 318 238 l 318 67 l 1119 67 l 1119 0 l 51 0 l 51 542 z "},"Ê":{"ha":1142,"x_min":50,"x_max":1121,"o":"m 51 542 l 1119 542 l 1119 422 l 318 422 l 318 304 l 740 304 l 740 238 l 318 238 l 318 67 l 1119 67 l 1119 0 l 51 0 l 51 542 z "},"Ë":{"ha":1142,"x_min":50,"x_max":1121,"o":"m 51 542 l 1119 542 l 1119 422 l 318 422 l 318 304 l 740 304 l 740 238 l 318 238 l 318 67 l 1119 67 l 1119 0 l 51 0 l 51 542 z "},"F":{"ha":1129,"x_min":50,"x_max":1121,"o":"m 51 542 l 1119 542 l 1119 422 l 318 422 l 318 304 l 740 304 l 740 238 l 318 238 l 318 0 l 51 0 l 51 542 z "},"G":{"ha":1132,"x_min":25,"x_max":1094,"o":"m 105 80 q 65 120 105 80 q 25 271 25 160 q 105 462 25 382 q 296 542 185 542 l 824 542 q 976 494 907 542 q 1075 371 1044 447 l 774 371 q 649 422 722 422 l 471 422 q 345 370 397 422 q 293 244 293 318 q 345 119 293 171 q 471 67 397 67 l 649 67 q 772 117 721 67 q 826 238 824 167 l 531 238 l 531 304 l 1092 304 q 1094 271 1094 288 q 1092 238 1094 254 l 1094 238 l 1094 0 l 826 0 l 296 0 q 105 80 185 0 z "},"H":{"ha":1171,"x_min":50,"x_max":1121,"o":"m 51 542 l 318 542 l 318 304 l 853 304 l 853 542 l 1119 542 l 1119 0 l 853 0 l 853 238 l 318 238 l 318 0 l 51 0 l 51 542 z "},"I":{"ha":369,"x_min":50,"x_max":319,"o":"m 318 0 l 51 0 l 51 542 l 318 542 l 318 0 z "},"Ì":{"ha":369,"x_min":50,"x_max":319,"o":"m 318 0 l 51 0 l 51 542 l 318 542 l 318 0 z "},"Í":{"ha":369,"x_min":50,"x_max":319,"o":"m 318 0 l 51 0 l 51 542 l 318 542 l 318 0 z "},"Î":{"ha":369,"x_min":50,"x_max":319,"o":"m 318 0 l 51 0 l 51 542 l 318 542 l 318 0 z "},"Ï":{"ha":369,"x_min":50,"x_max":319,"o":"m 318 0 l 51 0 l 51 542 l 318 542 l 318 0 z "},"J":{"ha":1115,"x_min":10,"x_max":1078,"o":"m 453 67 l 632 67 q 757 119 704 67 q 810 244 810 171 l 810 542 l 1076 542 l 1076 244 l 1075 244 q 988 71 1065 142 q 806 0 911 0 l 279 0 q 99 69 176 0 q 10 238 22 138 l 275 238 q 330 117 278 167 q 453 67 382 67 z "},"K":{"ha":1122,"x_min":50,"x_max":1119,"o":"m 51 542 l 318 542 l 318 219 l 969 542 l 1119 542 l 607 288 l 1119 0 l 575 0 l 318 146 l 318 0 l 51 0 l 51 542 z "},"L":{"ha":1125,"x_min":50,"x_max":1121,"o":"m 51 542 l 318 542 l 318 67 l 1119 67 l 1119 0 l 51 0 l 51 542 z "},"M":{"ha":1438,"x_min":50,"x_max":1388,"o":"m 51 542 l 318 542 l 719 51 l 1119 542 l 1386 542 l 1386 0 l 1119 0 l 1119 438 l 761 0 l 676 0 l 318 438 l 318 0 l 51 0 l 51 542 z "},"N":{"ha":1171,"x_min":50,"x_max":1121,"o":"m 318 454 l 318 0 l 51 0 l 51 542 l 318 542 l 853 93 l 853 542 l 1119 542 l 1119 0 l 853 0 l 318 454 z "},"Ñ":{"ha":1171,"x_min":50,"x_max":1121,"o":"m 318 454 l 318 0 l 51 0 l 51 542 l 318 542 l 853 93 l 853 542 l 1119 542 l 1119 0 l 853 0 l 318 454 z "},"O":{"ha":1119,"x_min":25,"x_max":1094,"o":"m 471 67 l 649 67 q 774 119 722 67 q 826 244 826 171 q 774 370 826 318 q 649 422 722 422 l 471 422 q 345 370 397 422 q 293 244 293 318 q 345 119 293 171 q 471 67 397 67 m 105 80 q 65 120 105 80 q 25 271 25 160 q 105 462 25 382 q 296 542 185 542 l 824 542 q 1015 462 935 542 q 1094 271 1094 382 q 1015 80 1094 160 q 824 0 935 0 l 296 0 q 105 80 185 0 z "},"Ò":{"ha":1119,"x_min":25,"x_max":1094,"o":"m 471 67 l 649 67 q 774 119 722 67 q 826 244 826 171 q 774 370 826 318 q 649 422 722 422 l 471 422 q 345 370 397 422 q 293 244 293 318 q 345 119 293 171 q 471 67 397 67 m 105 80 q 65 120 105 80 q 25 271 25 160 q 105 462 25 382 q 296 542 185 542 l 824 542 q 1015 462 935 542 q 1094 271 1094 382 q 1015 80 1094 160 q 824 0 935 0 l 296 0 q 105 80 185 0 z "},"Ó":{"ha":1119,"x_min":25,"x_max":1094,"o":"m 471 67 l 649 67 q 774 119 722 67 q 826 244 826 171 q 774 370 826 318 q 649 422 722 422 l 471 422 q 345 370 397 422 q 293 244 293 318 q 345 119 293 171 q 471 67 397 67 m 105 80 q 65 120 105 80 q 25 271 25 160 q 105 462 25 382 q 296 542 185 542 l 824 542 q 1015 462 935 542 q 1094 271 1094 382 q 1015 80 1094 160 q 824 0 935 0 l 296 0 q 105 80 185 0 z "},"Ô":{"ha":1119,"x_min":25,"x_max":1094,"o":"m 471 67 l 649 67 q 774 119 722 67 q 826 244 826 171 q 774 370 826 318 q 649 422 722 422 l 471 422 q 345 370 397 422 q 293 244 293 318 q 345 119 293 171 q 471 67 397 67 m 105 80 q 65 120 105 80 q 25 271 25 160 q 105 462 25 382 q 296 542 185 542 l 824 542 q 1015 462 935 542 q 1094 271 1094 382 q 1015 80 1094 160 q 824 0 935 0 l 296 0 q 105 80 185 0 z "},"Õ":{"ha":1119,"x_min":25,"x_max":1094,"o":"m 471 67 l 649 67 q 774 119 722 67 q 826 244 826 171 q 774 370 826 318 q 649 422 722 422 l 471 422 q 345 370 397 422 q 293 244 293 318 q 345 119 293 171 q 471 67 397 67 m 105 80 q 65 120 105 80 q 25 271 25 160 q 105 462 25 382 q 296 542 185 542 l 824 542 q 1015 462 935 542 q 1094 271 1094 382 q 1015 80 1094 160 q 824 0 935 0 l 296 0 q 105 80 185 0 z "},"Ö":{"ha":1119,"x_min":25,"x_max":1094,"o":"m 471 67 l 649 67 q 774 119 722 67 q 826 244 826 171 q 774 370 826 318 q 649 422 722 422 l 471 422 q 345 370 397 422 q 293 244 293 318 q 345 119 293 171 q 471 67 397 67 m 105 80 q 65 120 105 80 q 25 271 25 160 q 105 462 25 382 q 296 542 185 542 l 824 542 q 1015 462 935 542 q 1094 271 1094 382 q 1015 80 1094 160 q 824 0 935 0 l 296 0 q 105 80 185 0 z "},"Ø":{"ha":1119,"x_min":25,"x_max":1094,"o":"m 471 67 l 649 67 q 774 119 722 67 q 826 244 826 171 q 774 370 826 318 q 649 422 722 422 l 471 422 q 345 370 397 422 q 293 244 293 318 q 345 119 293 171 q 471 67 397 67 m 105 80 q 65 120 105 80 q 25 271 25 160 q 105 462 25 382 q 296 542 185 542 l 824 542 q 1015 462 935 542 q 1094 271 1094 382 q 1015 80 1094 160 q 824 0 935 0 l 296 0 q 105 80 185 0 z "},"P":{"ha":1136,"x_min":50,"x_max":1121,"o":"m 793 304 q 835 322 818 304 q 853 363 853 339 q 835 405 853 388 q 793 422 818 422 l 318 422 l 318 304 l 793 304 m 51 0 l 51 542 l 968 542 q 1075 497 1031 542 q 1119 389 1119 451 q 1075 282 1119 326 q 968 238 1031 238 l 318 238 l 318 0 l 51 0 z "},"Q":{"ha":1119,"x_min":25,"x_max":1094,"o":"m 426 72 l 426 244 l 693 244 l 693 72 q 789 135 751 88 q 826 244 826 183 q 774 370 826 318 q 649 422 722 422 l 471 422 q 345 370 397 422 q 293 244 293 318 q 331 135 293 183 q 426 72 368 88 m 105 80 q 65 120 105 80 q 25 271 25 160 q 105 462 25 382 q 296 542 185 542 l 824 542 q 1015 462 935 542 q 1094 271 1094 382 q 1015 80 1094 160 q 824 0 935 0 l 693 0 l 693 -142 l 426 -142 l 426 0 l 296 0 q 105 80 185 0 z "},"R":{"ha":1161,"x_min":50,"x_max":1121,"o":"m 318 422 l 318 304 l 793 304 q 835 322 818 304 q 853 363 853 339 q 835 405 853 388 q 793 422 818 422 l 318 422 m 51 238 l 51 542 l 968 542 q 1075 497 1031 542 q 1119 389 1119 451 q 1063 271 1119 317 q 1119 151 1119 225 l 1119 0 l 853 0 l 853 151 q 828 213 853 188 q 767 238 803 238 l 318 238 l 318 0 l 51 0 l 51 238 z "},"S":{"ha":1135,"x_min":32,"x_max":1101,"o":"m 32 151 l 32 153 l 300 153 q 325 92 300 117 q 385 67 350 67 l 749 67 q 808 92 783 67 q 833 152 833 117 q 808 213 833 188 q 749 238 783 238 l 185 238 q 77 282 122 238 q 32 390 32 326 q 77 497 32 453 q 185 542 122 542 l 949 542 q 1056 497 1011 542 q 1101 389 1101 453 q 1099 364 1101 376 l 833 364 q 816 405 833 388 q 775 422 799 422 l 358 422 q 317 405 335 422 q 300 363 300 388 q 317 322 300 339 q 358 304 335 304 l 949 304 q 1056 260 1011 304 q 1101 152 1101 215 q 1056 44 1101 89 q 949 0 1011 0 l 185 0 q 77 44 122 0 q 32 151 32 89 z "},"T":{"ha":1089,"x_min":10,"x_max":1079,"o":"m 411 422 l 10 422 l 10 542 l 1079 542 l 1079 422 l 678 422 l 678 0 l 411 0 l 411 422 z "},"U":{"ha":1143,"x_min":38,"x_max":1107,"o":"m 38 271 l 38 542 l 304 542 l 304 203 q 344 106 304 146 q 440 67 385 67 l 704 67 q 799 106 760 67 q 839 203 839 146 l 839 542 l 1106 542 l 1106 271 q 1026 80 1106 160 q 835 0 947 0 l 308 0 q 117 80 197 0 q 38 271 38 160 z "},"Ù":{"ha":1143,"x_min":38,"x_max":1107,"o":"m 38 271 l 38 542 l 304 542 l 304 203 q 344 106 304 146 q 440 67 385 67 l 704 67 q 799 106 760 67 q 839 203 839 146 l 839 542 l 1106 542 l 1106 271 q 1026 80 1106 160 q 835 0 947 0 l 308 0 q 117 80 197 0 q 38 271 38 160 z "},"Ú":{"ha":1143,"x_min":38,"x_max":1107,"o":"m 38 271 l 38 542 l 304 542 l 304 203 q 344 106 304 146 q 440 67 385 67 l 704 67 q 799 106 760 67 q 839 203 839 146 l 839 542 l 1106 542 l 1106 271 q 1026 80 1106 160 q 835 0 947 0 l 308 0 q 117 80 197 0 q 38 271 38 160 z "},"Û":{"ha":1143,"x_min":38,"x_max":1107,"o":"m 38 271 l 38 542 l 304 542 l 304 203 q 344 106 304 146 q 440 67 385 67 l 704 67 q 799 106 760 67 q 839 203 839 146 l 839 542 l 1106 542 l 1106 271 q 1026 80 1106 160 q 835 0 947 0 l 308 0 q 117 80 197 0 q 38 271 38 160 z "},"Ü":{"ha":1143,"x_min":38,"x_max":1107,"o":"m 38 271 l 38 542 l 304 542 l 304 203 q 344 106 304 146 q 440 67 385 67 l 704 67 q 799 106 760 67 q 839 203 839 146 l 839 542 l 1106 542 l 1106 271 q 1026 80 1106 160 q 835 0 947 0 l 308 0 q 117 80 197 0 q 38 271 38 160 z "},"V":{"ha":1157,"x_min":50,"x_max":1121,"o":"m 51 271 l 51 542 l 318 542 l 318 67 l 717 67 q 813 106 774 67 q 853 203 853 146 l 853 542 l 1119 542 l 1119 271 q 1040 80 1119 160 q 849 0 961 0 l 51 0 l 51 271 z "},"W":{"ha":1549,"x_min":21,"x_max":1526,"o":"m 22 542 l 289 542 l 360 88 l 732 542 l 817 542 l 1189 88 l 1258 542 l 1526 542 l 1442 0 l 1175 0 l 774 489 l 374 0 l 107 0 l 22 542 z "},"X":{"ha":1078,"x_min":4,"x_max":1074,"o":"m 6 542 l 421 542 l 639 361 l 957 542 l 1074 542 l 686 321 l 1074 0 l 657 0 l 439 181 l 122 0 l 6 0 l 392 219 l 6 542 z "},"Y":{"ha":1058,"x_min":-4,"x_max":1065,"o":"m -3 542 l 413 542 l 631 361 l 949 542 l 1065 542 l 678 321 l 664 314 l 664 0 l 397 0 l 397 208 l 383 219 l -3 542 z "},"Ý":{"ha":1058,"x_min":-4,"x_max":1065,"o":"m -3 542 l 413 542 l 631 361 l 949 542 l 1065 542 l 678 321 l 664 314 l 664 0 l 397 0 l 397 208 l 383 219 l -3 542 z "},"Ÿ":{"ha":1058,"x_min":-4,"x_max":1065,"o":"m -3 542 l 413 542 l 631 361 l 949 542 l 1065 542 l 678 321 l 664 314 l 664 0 l 397 0 l 397 208 l 383 219 l -3 542 z "},"Z":{"ha":1114,"x_min":22,"x_max":1092,"o":"m 24 542 l 1092 542 l 1092 422 l 483 67 l 1092 67 l 1092 0 l 24 0 l 24 67 l 632 422 l 24 422 l 24 542 z "},"[":{"ha":507,"x_min":50,"x_max":481,"o":"m 51 -143 l 51 769 l 479 769 l 479 651 l 318 651 l 318 -24 l 479 -24 l 479 -143 l 51 -143 z "},"]":{"ha":508,"x_min":28,"x_max":458,"o":"m 190 651 l 29 651 l 29 769 l 457 769 l 457 -143 l 29 -143 l 29 -24 l 190 -24 l 190 651 z "},"_":{"ha":471,"x_min":33,"x_max":438,"o":"m 436 -3 l 35 -3 l 35 108 l 436 108 l 436 -3 z "},"a":{"ha":1139,"x_min":26,"x_max":1094,"o":"m 826 364 l 1094 364 l 1094 0 l 826 0 l 826 42 q 713 0 776 0 l 208 0 q 80 53 133 0 q 26 182 26 107 q 80 310 26 257 q 208 364 133 364 l 711 364 q 826 322 776 364 l 826 364 m 826 143 l 826 169 q 797 223 822 201 q 739 244 772 244 l 382 244 q 319 219 346 244 q 293 156 293 193 q 319 93 293 119 q 382 67 346 67 l 739 67 q 797 88 772 67 q 826 143 822 110 z "},"à":{"ha":1139,"x_min":26,"x_max":1094,"o":"m 826 364 l 1094 364 l 1094 0 l 826 0 l 826 42 q 713 0 776 0 l 208 0 q 80 53 133 0 q 26 182 26 107 q 80 310 26 257 q 208 364 133 364 l 711 364 q 826 322 776 364 l 826 364 m 826 143 l 826 169 q 797 223 822 201 q 739 244 772 244 l 382 244 q 319 219 346 244 q 293 156 293 193 q 319 93 293 119 q 382 67 346 67 l 739 67 q 797 88 772 67 q 826 143 822 110 z "},"á":{"ha":1139,"x_min":26,"x_max":1094,"o":"m 826 364 l 1094 364 l 1094 0 l 826 0 l 826 42 q 713 0 776 0 l 208 0 q 80 53 133 0 q 26 182 26 107 q 80 310 26 257 q 208 364 133 364 l 711 364 q 826 322 776 364 l 826 364 m 826 143 l 826 169 q 797 223 822 201 q 739 244 772 244 l 382 244 q 319 219 346 244 q 293 156 293 193 q 319 93 293 119 q 382 67 346 67 l 739 67 q 797 88 772 67 q 826 143 822 110 z "},"â":{"ha":1139,"x_min":26,"x_max":1094,"o":"m 826 364 l 1094 364 l 1094 0 l 826 0 l 826 42 q 713 0 776 0 l 208 0 q 80 53 133 0 q 26 182 26 107 q 80 310 26 257 q 208 364 133 364 l 711 364 q 826 322 776 364 l 826 364 m 826 143 l 826 169 q 797 223 822 201 q 739 244 772 244 l 382 244 q 319 219 346 244 q 293 156 293 193 q 319 93 293 119 q 382 67 346 67 l 739 67 q 797 88 772 67 q 826 143 822 110 z "},"ã":{"ha":1139,"x_min":26,"x_max":1094,"o":"m 826 364 l 1094 364 l 1094 0 l 826 0 l 826 42 q 713 0 776 0 l 208 0 q 80 53 133 0 q 26 182 26 107 q 80 310 26 257 q 208 364 133 364 l 711 364 q 826 322 776 364 l 826 364 m 826 143 l 826 169 q 797 223 822 201 q 739 244 772 244 l 382 244 q 319 219 346 244 q 293 156 293 193 q 319 93 293 119 q 382 67 346 67 l 739 67 q 797 88 772 67 q 826 143 822 110 z "},"ä":{"ha":1139,"x_min":26,"x_max":1094,"o":"m 826 364 l 1094 364 l 1094 0 l 826 0 l 826 42 q 713 0 776 0 l 208 0 q 80 53 133 0 q 26 182 26 107 q 80 310 26 257 q 208 364 133 364 l 711 364 q 826 322 776 364 l 826 364 m 826 143 l 826 169 q 797 223 822 201 q 739 244 772 244 l 382 244 q 319 219 346 244 q 293 156 293 193 q 319 93 293 119 q 382 67 346 67 l 739 67 q 797 88 772 67 q 826 143 822 110 z "},"å":{"ha":1139,"x_min":26,"x_max":1094,"o":"m 826 364 l 1094 364 l 1094 0 l 826 0 l 826 42 q 713 0 776 0 l 208 0 q 80 53 133 0 q 26 182 26 107 q 80 310 26 257 q 208 364 133 364 l 711 364 q 826 322 776 364 l 826 364 m 826 143 l 826 169 q 797 223 822 201 q 739 244 772 244 l 382 244 q 319 219 346 244 q 293 156 293 193 q 319 93 293 119 q 382 67 346 67 l 739 67 q 797 88 772 67 q 826 143 822 110 z "},"b":{"ha":1139,"x_min":44,"x_max":1113,"o":"m 931 364 q 1059 310 1006 364 q 1113 182 1113 257 q 1059 53 1113 107 q 931 0 1006 0 l 428 0 q 313 42 363 0 l 313 0 l 46 0 l 46 542 l 313 542 l 313 322 q 428 364 363 364 l 931 364 m 757 67 q 819 93 793 67 q 846 156 846 119 q 819 219 846 193 q 757 244 793 244 l 400 244 q 342 223 367 244 q 313 169 317 201 l 313 143 q 342 88 317 110 q 400 67 367 67 l 757 67 z "},"c":{"ha":1118,"x_min":26,"x_max":1094,"o":"m 739 67 q 817 115 792 67 l 1081 115 q 1015 32 1061 64 q 913 0 968 0 l 208 0 q 80 53 133 0 q 26 182 26 107 q 80 310 26 257 q 208 364 133 364 l 913 364 q 1041 310 988 364 q 1094 182 1094 257 l 824 182 q 792 227 815 210 q 739 244 768 244 l 382 244 q 319 219 346 244 q 293 156 293 193 q 319 93 293 119 q 382 67 346 67 l 739 67 z "},"ç":{"ha":1118,"x_min":26,"x_max":1094,"o":"m 739 67 q 817 115 792 67 l 1081 115 q 1015 32 1061 64 q 913 0 968 0 l 208 0 q 80 53 133 0 q 26 182 26 107 q 80 310 26 257 q 208 364 133 364 l 913 364 q 1041 310 988 364 q 1094 182 1094 257 l 824 182 q 792 227 815 210 q 739 244 768 244 l 382 244 q 319 219 346 244 q 293 156 293 193 q 319 93 293 119 q 382 67 346 67 l 739 67 z "},"d":{"ha":1139,"x_min":26,"x_max":1094,"o":"m 826 542 l 1093 542 l 1093 0 l 826 0 l 826 42 q 711 0 776 0 l 208 0 q 80 53 133 0 q 26 182 26 107 q 80 310 26 257 q 208 364 133 364 l 711 364 q 826 322 776 364 l 826 542 m 826 143 l 826 169 q 797 223 822 201 q 739 244 772 244 l 382 244 q 319 219 346 244 q 293 156 293 193 q 319 93 293 119 q 382 67 346 67 l 739 67 q 797 88 772 67 q 826 143 822 110 z "},"e":{"ha":1122,"x_min":25,"x_max":1092,"o":"m 983 115 l 304 115 q 383 67 329 67 l 1078 67 l 1078 0 l 207 0 q 78 53 132 0 q 25 182 25 107 q 78 310 25 257 q 207 364 132 364 l 910 364 q 1038 310 985 364 q 1090 182 1090 257 q 1078 115 1090 147 l 983 115 m 297 182 l 818 182 q 787 227 810 210 q 733 244 764 244 l 383 244 q 329 227 353 244 q 297 182 306 210 z "},"è":{"ha":1122,"x_min":25,"x_max":1092,"o":"m 983 115 l 304 115 q 383 67 329 67 l 1078 67 l 1078 0 l 207 0 q 78 53 132 0 q 25 182 25 107 q 78 310 25 257 q 207 364 132 364 l 910 364 q 1038 310 985 364 q 1090 182 1090 257 q 1078 115 1090 147 l 983 115 m 297 182 l 818 182 q 787 227 810 210 q 733 244 764 244 l 383 244 q 329 227 353 244 q 297 182 306 210 z "},"é":{"ha":1122,"x_min":25,"x_max":1092,"o":"m 983 115 l 304 115 q 383 67 329 67 l 1078 67 l 1078 0 l 207 0 q 78 53 132 0 q 25 182 25 107 q 78 310 25 257 q 207 364 132 364 l 910 364 q 1038 310 985 364 q 1090 182 1090 257 q 1078 115 1090 147 l 983 115 m 297 182 l 818 182 q 787 227 810 210 q 733 244 764 244 l 383 244 q 329 227 353 244 q 297 182 306 210 z "},"ê":{"ha":1122,"x_min":25,"x_max":1092,"o":"m 983 115 l 304 115 q 383 67 329 67 l 1078 67 l 1078 0 l 207 0 q 78 53 132 0 q 25 182 25 107 q 78 310 25 257 q 207 364 132 364 l 910 364 q 1038 310 985 364 q 1090 182 1090 257 q 1078 115 1090 147 l 983 115 m 297 182 l 818 182 q 787 227 810 210 q 733 244 764 244 l 383 244 q 329 227 353 244 q 297 182 306 210 z "},"ë":{"ha":1122,"x_min":25,"x_max":1092,"o":"m 983 115 l 304 115 q 383 67 329 67 l 1078 67 l 1078 0 l 207 0 q 78 53 132 0 q 25 182 25 107 q 78 310 25 257 q 207 364 132 364 l 910 364 q 1038 310 985 364 q 1090 182 1090 257 q 1078 115 1090 147 l 983 115 m 297 182 l 818 182 q 787 227 810 210 q 733 244 764 244 l 383 244 q 329 227 353 244 q 297 182 306 210 z "},"f":{"ha":783,"x_min":60,"x_max":925,"o":"m 510 422 q 458 406 481 422 q 426 364 435 389 l 685 364 l 685 244 l 419 244 l 419 0 l 153 0 l 153 244 l 60 244 l 60 364 l 153 364 q 207 490 154 438 q 335 542 260 542 l 924 542 l 924 422 l 510 422 z "},"g":{"ha":1139,"x_min":26,"x_max":1094,"o":"m 826 364 l 1094 364 l 1094 0 q 1039 -126 1092 -74 q 913 -178 986 -178 l 26 -178 l 26 -111 l 738 -111 q 788 -94 765 -111 q 821 -51 811 -78 l 822 38 q 713 0 774 0 l 208 0 q 80 53 133 0 q 26 182 26 107 q 80 310 26 257 q 208 364 133 364 l 713 364 q 826 322 776 364 l 826 364 m 824 128 l 824 181 q 793 226 817 208 q 739 244 769 244 l 383 244 q 320 219 346 244 q 294 156 294 193 q 320 93 294 119 q 383 67 346 67 l 739 67 q 792 84 768 67 q 824 128 815 101 z "},"h":{"ha":1147,"x_min":44,"x_max":1113,"o":"m 931 364 q 1059 310 1006 364 q 1113 182 1113 257 l 1113 0 l 846 0 l 846 156 q 819 219 846 193 q 757 244 793 244 l 400 244 q 342 223 367 244 q 313 169 317 201 l 313 0 l 46 0 l 46 542 l 313 542 l 313 322 q 428 364 363 364 l 931 364 z "},"i":{"ha":356,"x_min":43,"x_max":313,"o":"m 311 0 l 44 0 l 44 364 l 311 364 l 311 0 m 311 431 l 44 431 l 44 542 l 311 542 l 311 431 z "},"ì":{"ha":356,"x_min":43,"x_max":313,"o":"m 311 0 l 44 0 l 44 364 l 311 364 l 311 0 m 311 431 l 44 431 l 44 542 l 311 542 l 311 431 z "},"í":{"ha":356,"x_min":43,"x_max":313,"o":"m 311 0 l 44 0 l 44 364 l 311 364 l 311 0 m 311 431 l 44 431 l 44 542 l 311 542 l 311 431 z "},"î":{"ha":356,"x_min":43,"x_max":313,"o":"m 311 0 l 44 0 l 44 364 l 311 364 l 311 0 m 311 431 l 44 431 l 44 542 l 311 542 l 311 431 z "},"ï":{"ha":356,"x_min":43,"x_max":313,"o":"m 311 0 l 44 0 l 44 364 l 311 364 l 311 0 m 311 431 l 44 431 l 44 542 l 311 542 l 311 431 z "},"j":{"ha":358,"x_min":-51,"x_max":315,"o":"m 42 -51 l 47 364 l 314 364 l 314 0 q 260 -126 313 -74 q 133 -178 207 -178 l -50 -178 l -50 -111 l -43 -111 q 9 -94 -14 -111 q 42 -51 32 -78 m 315 431 l 47 431 l 47 542 l 315 542 l 315 431 z "},"k":{"ha":1124,"x_min":44,"x_max":1119,"o":"m 1118 364 l 679 244 l 1114 0 l 569 0 l 313 144 l 313 0 l 46 0 l 46 542 l 313 542 l 313 211 l 872 364 l 1118 364 z "},"l":{"ha":357,"x_min":44,"x_max":313,"o":"m 313 0 l 46 0 l 46 542 l 313 542 l 313 0 z "},"m":{"ha":1947,"x_min":43,"x_max":1914,"o":"m 1732 364 q 1860 310 1807 364 q 1913 182 1913 257 l 1913 0 l 1646 0 l 1646 156 q 1619 219 1646 193 q 1557 244 1593 244 l 1200 244 q 1138 219 1164 244 q 1111 156 1111 193 l 1111 0 l 844 0 l 844 156 q 818 219 844 193 q 756 244 792 244 l 400 244 q 342 223 367 244 q 311 169 317 201 l 311 0 l 44 0 l 44 364 l 311 364 l 311 322 q 426 364 361 364 l 931 364 q 1015 342 975 364 q 1079 286 1054 321 q 1143 342 1104 321 q 1228 364 1182 364 l 1732 364 z "},"n":{"ha":1147,"x_min":43,"x_max":1113,"o":"m 931 364 q 1058 310 1006 364 q 1111 182 1111 257 l 1111 0 l 844 0 l 844 156 q 818 219 844 193 q 756 244 792 244 l 400 244 q 342 223 367 244 q 311 169 317 201 l 311 0 l 44 0 l 44 364 l 311 364 l 311 322 q 426 364 361 364 l 931 364 z "},"ñ":{"ha":1147,"x_min":43,"x_max":1113,"o":"m 931 364 q 1058 310 1006 364 q 1111 182 1111 257 l 1111 0 l 844 0 l 844 156 q 818 219 844 193 q 756 244 792 244 l 400 244 q 342 223 367 244 q 311 169 317 201 l 311 0 l 44 0 l 44 364 l 311 364 l 311 322 q 426 364 361 364 l 931 364 z "},"o":{"ha":1119,"x_min":25,"x_max":1093,"o":"m 911 364 q 1040 310 986 364 q 1093 182 1093 257 q 1040 53 1093 107 q 911 0 986 0 l 207 0 q 78 53 132 0 q 25 182 25 107 q 78 310 25 257 q 207 364 132 364 l 911 364 m 738 67 q 800 93 774 67 q 826 156 826 119 q 800 219 826 193 q 738 244 774 244 l 382 244 q 319 219 344 244 q 293 156 293 193 q 319 93 293 119 q 382 67 344 67 l 738 67 z "},"ò":{"ha":1119,"x_min":25,"x_max":1093,"o":"m 911 364 q 1040 310 986 364 q 1093 182 1093 257 q 1040 53 1093 107 q 911 0 986 0 l 207 0 q 78 53 132 0 q 25 182 25 107 q 78 310 25 257 q 207 364 132 364 l 911 364 m 738 67 q 800 93 774 67 q 826 156 826 119 q 800 219 826 193 q 738 244 774 244 l 382 244 q 319 219 344 244 q 293 156 293 193 q 319 93 293 119 q 382 67 344 67 l 738 67 z "},"ó":{"ha":1119,"x_min":25,"x_max":1093,"o":"m 911 364 q 1040 310 986 364 q 1093 182 1093 257 q 1040 53 1093 107 q 911 0 986 0 l 207 0 q 78 53 132 0 q 25 182 25 107 q 78 310 25 257 q 207 364 132 364 l 911 364 m 738 67 q 800 93 774 67 q 826 156 826 119 q 800 219 826 193 q 738 244 774 244 l 382 244 q 319 219 344 244 q 293 156 293 193 q 319 93 293 119 q 382 67 344 67 l 738 67 z "},"ô":{"ha":1119,"x_min":25,"x_max":1093,"o":"m 911 364 q 1040 310 986 364 q 1093 182 1093 257 q 1040 53 1093 107 q 911 0 986 0 l 207 0 q 78 53 132 0 q 25 182 25 107 q 78 310 25 257 q 207 364 132 364 l 911 364 m 738 67 q 800 93 774 67 q 826 156 826 119 q 800 219 826 193 q 738 244 774 244 l 382 244 q 319 219 344 244 q 293 156 293 193 q 319 93 293 119 q 382 67 344 67 l 738 67 z "},"õ":{"ha":1119,"x_min":25,"x_max":1093,"o":"m 911 364 q 1040 310 986 364 q 1093 182 1093 257 q 1040 53 1093 107 q 911 0 986 0 l 207 0 q 78 53 132 0 q 25 182 25 107 q 78 310 25 257 q 207 364 132 364 l 911 364 m 738 67 q 800 93 774 67 q 826 156 826 119 q 800 219 826 193 q 738 244 774 244 l 382 244 q 319 219 344 244 q 293 156 293 193 q 319 93 293 119 q 382 67 344 67 l 738 67 z "},"ö":{"ha":1119,"x_min":25,"x_max":1093,"o":"m 911 364 q 1040 310 986 364 q 1093 182 1093 257 q 1040 53 1093 107 q 911 0 986 0 l 207 0 q 78 53 132 0 q 25 182 25 107 q 78 310 25 257 q 207 364 132 364 l 911 364 m 738 67 q 800 93 774 67 q 826 156 826 119 q 800 219 826 193 q 738 244 774 244 l 382 244 q 319 219 344 244 q 293 156 293 193 q 319 93 293 119 q 382 67 344 67 l 738 67 z "},"ø":{"ha":1119,"x_min":25,"x_max":1093,"o":"m 911 364 q 1040 310 986 364 q 1093 182 1093 257 q 1040 53 1093 107 q 911 0 986 0 l 207 0 q 78 53 132 0 q 25 182 25 107 q 78 310 25 257 q 207 364 132 364 l 911 364 m 738 67 q 800 93 774 67 q 826 156 826 119 q 800 219 826 193 q 738 244 774 244 l 382 244 q 319 219 344 244 q 293 156 293 193 q 319 93 293 119 q 382 67 344 67 l 738 67 z "},"p":{"ha":1139,"x_min":43,"x_max":1113,"o":"m 931 364 q 1058 310 1006 364 q 1111 182 1111 257 q 1058 53 1111 107 q 931 0 1006 0 l 426 0 q 311 42 363 0 l 311 -178 l 44 -178 l 44 364 l 311 364 l 311 322 q 426 364 361 364 l 931 364 m 756 67 q 819 93 793 67 q 844 156 844 119 q 818 219 844 193 q 756 244 792 244 l 400 244 q 342 223 367 244 q 311 169 317 201 l 311 143 q 342 88 317 110 q 400 67 367 67 l 756 67 z "},"q":{"ha":1139,"x_min":26,"x_max":1094,"o":"m 826 364 l 1094 364 l 1094 -178 l 826 -178 l 826 42 q 713 0 776 0 l 208 0 q 80 53 133 0 q 26 182 26 107 q 80 310 26 257 q 208 364 133 364 l 713 364 q 826 322 776 364 l 826 364 m 826 143 l 826 169 q 797 223 822 201 q 739 244 772 244 l 382 244 q 319 219 346 244 q 293 156 293 193 q 319 93 293 119 q 382 67 346 67 l 739 67 q 797 88 772 67 q 826 143 822 110 z "},"r":{"ha":838,"x_min":43,"x_max":831,"o":"m 426 364 l 831 364 l 761 244 q 759 244 761 244 q 756 244 757 244 l 400 244 q 342 223 367 244 q 311 169 317 201 l 311 0 l 44 0 l 44 364 l 311 364 l 311 322 q 426 364 361 364 z "},"s":{"ha":1135,"x_min":32,"x_max":1101,"o":"m 331 256 q 309 247 318 256 q 300 225 300 238 q 309 203 300 213 q 331 194 318 194 l 1003 194 q 1072 166 1043 194 q 1101 97 1101 138 q 1072 28 1101 57 q 1003 0 1043 0 l 33 0 l 33 67 l 803 67 q 824 76 815 67 q 833 97 833 85 q 824 119 833 110 q 803 128 815 128 l 143 128 q 65 165 97 131 q 32 246 32 199 q 67 329 32 294 q 150 364 101 364 l 1101 364 l 1101 256 l 331 256 z "},"t":{"ha":682,"x_min":19,"x_max":646,"o":"m 644 244 l 379 244 l 379 178 q 401 139 379 160 q 469 118 424 118 l 644 118 l 644 0 l 294 0 q 167 52 219 0 q 113 178 114 104 l 113 244 l 19 244 l 19 364 l 113 364 l 113 542 l 379 542 l 379 364 l 644 364 l 644 244 z "},"u":{"ha":1147,"x_min":35,"x_max":1103,"o":"m 835 364 l 1103 364 l 1103 0 l 835 0 l 835 42 q 721 0 785 0 l 217 0 q 88 53 142 0 q 35 182 35 107 l 35 364 l 301 364 l 301 156 q 328 93 301 119 q 392 67 354 67 l 747 67 q 806 88 781 67 q 835 143 831 110 l 835 364 z "},"ù":{"ha":1147,"x_min":35,"x_max":1103,"o":"m 835 364 l 1103 364 l 1103 0 l 835 0 l 835 42 q 721 0 785 0 l 217 0 q 88 53 142 0 q 35 182 35 107 l 35 364 l 301 364 l 301 156 q 328 93 301 119 q 392 67 354 67 l 747 67 q 806 88 781 67 q 835 143 831 110 l 835 364 z "},"ú":{"ha":1147,"x_min":35,"x_max":1103,"o":"m 835 364 l 1103 364 l 1103 0 l 835 0 l 835 42 q 721 0 785 0 l 217 0 q 88 53 142 0 q 35 182 35 107 l 35 364 l 301 364 l 301 156 q 328 93 301 119 q 392 67 354 67 l 747 67 q 806 88 781 67 q 835 143 831 110 l 835 364 z "},"û":{"ha":1147,"x_min":35,"x_max":1103,"o":"m 835 364 l 1103 364 l 1103 0 l 835 0 l 835 42 q 721 0 785 0 l 217 0 q 88 53 142 0 q 35 182 35 107 l 35 364 l 301 364 l 301 156 q 328 93 301 119 q 392 67 354 67 l 747 67 q 806 88 781 67 q 835 143 831 110 l 835 364 z "},"ü":{"ha":1147,"x_min":35,"x_max":1103,"o":"m 835 364 l 1103 364 l 1103 0 l 835 0 l 835 42 q 721 0 785 0 l 217 0 q 88 53 142 0 q 35 182 35 107 l 35 364 l 301 364 l 301 156 q 328 93 301 119 q 392 67 354 67 l 747 67 q 806 88 781 67 q 835 143 831 110 l 835 364 z "},"v":{"ha":1139,"x_min":43,"x_max":1113,"o":"m 844 371 l 1111 371 l 1111 276 q 1032 87 1111 165 q 840 8 953 8 l 43 8 l 43 371 l 311 371 l 311 72 l 713 72 q 805 112 765 72 q 844 208 844 151 l 844 371 z "},"w":{"ha":1946,"x_min":43,"x_max":1913,"o":"m 1644 371 l 1911 371 l 1911 189 q 1858 60 1911 114 q 1729 7 1804 7 l 43 7 l 43 371 l 311 371 l 311 74 l 754 74 q 817 100 792 74 q 843 164 843 126 l 843 371 l 1111 371 l 1111 74 l 1556 74 q 1618 100 1592 74 q 1644 164 1644 126 l 1644 371 z "},"x":{"ha":1079,"x_min":6,"x_max":1075,"o":"m 1074 371 l 724 228 l 1074 7 l 585 7 l 426 107 l 182 7 l 6 7 l 357 150 l 6 371 l 496 371 l 654 271 l 899 371 l 1074 371 z "},"y":{"ha":1147,"x_min":35,"x_max":1103,"o":"m 835 371 l 1103 371 l 1103 7 q 1048 -119 1101 -67 q 921 -171 994 -171 l 738 -171 l 738 -104 l 746 -104 q 797 -87 774 -104 q 829 -44 819 -71 l 831 44 q 721 7 782 7 l 217 7 q 88 60 142 7 q 35 189 35 114 l 35 371 l 303 371 l 303 164 q 328 100 303 126 q 392 74 354 74 l 747 74 q 799 91 776 74 q 832 136 822 108 l 835 369 l 835 371 z "},"ý":{"ha":1147,"x_min":35,"x_max":1103,"o":"m 835 371 l 1103 371 l 1103 7 q 1048 -119 1101 -67 q 921 -171 994 -171 l 738 -171 l 738 -104 l 746 -104 q 797 -87 774 -104 q 829 -44 819 -71 l 831 44 q 721 7 782 7 l 217 7 q 88 60 142 7 q 35 189 35 114 l 35 371 l 303 371 l 303 164 q 328 100 303 126 q 392 74 354 74 l 747 74 q 799 91 776 74 q 832 136 822 108 l 835 369 l 835 371 z "},"ÿ":{"ha":1147,"x_min":35,"x_max":1103,"o":"m 835 371 l 1103 371 l 1103 7 q 1048 -119 1101 -67 q 921 -171 994 -171 l 738 -171 l 738 -104 l 746 -104 q 797 -87 774 -104 q 829 -44 819 -71 l 831 44 q 721 7 782 7 l 217 7 q 88 60 142 7 q 35 189 35 114 l 35 371 l 303 371 l 303 164 q 328 100 303 126 q 392 74 354 74 l 747 74 q 799 91 776 74 q 832 136 822 108 l 835 369 l 835 371 z "},"z":{"ha":1128,"x_min":29,"x_max":1099,"o":"m 1099 371 l 1099 253 l 663 67 l 1099 67 l 1099 7 l 29 7 l 29 67 l 465 253 l 29 253 l 29 371 l 1099 371 z "},"{":{"ha":631,"x_min":26,"x_max":603,"o":"m 174 229 l 150 243 l 28 314 l 150 385 l 174 399 l 174 678 q 201 742 174 715 q 267 769 228 769 l 603 769 l 603 651 l 442 651 l 442 450 q 394 369 442 396 l 297 314 l 394 257 q 442 178 442 231 l 442 -24 l 603 -24 l 603 -143 l 267 -143 q 201 -116 228 -143 q 174 -50 174 -89 l 174 229 z "},"}":{"ha":631,"x_min":26,"x_max":604,"o":"m 189 -24 l 189 178 q 235 257 189 231 l 332 314 l 235 369 q 189 450 189 397 l 189 651 l 28 651 l 28 769 l 364 769 q 428 742 401 769 q 456 678 456 715 l 456 399 l 479 385 l 603 314 l 479 243 l 456 229 l 456 -50 q 428 -116 456 -89 q 364 -143 401 -143 l 28 -143 l 28 -24 l 189 -24 z "}," ":{"ha":968,"x_min":0,"x_max":0,"o":""},"­":{"ha":0,"x_min":0,"x_max":0,"o":""},"ﬁ":{"ha":1067,"x_min":44,"x_max":1022,"o":"m 319 543 l 1022 543 l 1022 422 l 493 422 q 442 407 465 422 q 411 367 419 392 l 671 367 l 671 246 l 403 246 l 403 0 l 139 0 l 139 246 l 44 246 l 44 367 l 139 367 q 192 491 139 439 q 319 543 246 543 m 1022 0 l 754 0 l 754 367 l 1022 367 l 1022 0 z "}}}
